<svg xmlns="http://www.w3.org/2000/svg" xmlns:xlink="http://www.w3.org/1999/xlink" xmlns:lucid="lucid" width="860" height="920"><g transform="translate(-260 -20)" lucid:page-tab-id="0_0"><path d="M848 40c17.67 0 32 17.9 32 40s-14.33 40-32 40h-96c-17.67 0-32-17.9-32-40s14.33-40 32-40z" stroke="#000" stroke-width="2" fill="#fff"/><use xlink:href="#a" transform="matrix(1,0,0,1,725,45) translate(36.025 38.6)"/><use xlink:href="#b" transform="matrix(1,0,0,1,725,45) translate(77.975 38.6)"/><path d="M500 160h160v120H500z" stroke="#000" stroke-width="2" fill="#fff"/><use xlink:href="#c" transform="matrix(1,0,0,1,505,165) translate(56.05 58.6)"/><path d="M940 120h160v120H940z" stroke="#000" stroke-width="2" fill="#fff"/><use xlink:href="#d" transform="matrix(1,0,0,1,945,125) translate(47.025 58.6)"/><path d="M719 80H580v60.76" stroke="#000" stroke-width="2" fill="none"/><path d="M720 80l.04 1H719v-2h1.06zM580 155.76l-4.64-14.26h9.28z"/><path d="M580 159l-6-18.5h12zm-3.26-16.5l3.26 10.03 3.26-10.03z"/><path d="M881 80h139v20.76" stroke="#000" stroke-width="2" fill="none"/><path d="M881 81h-1.06l.06-1-.04-1H881zM1020 115.76l-4.64-14.26h9.28z"/><path d="M1020 119l-6-18.5h12zm-3.26-16.5l3.26 10.03 3.26-10.03z"/><path d="M500 320h160v120H500z" stroke="#000" stroke-width="2" fill="#fff"/><use xlink:href="#e" transform="matrix(1,0,0,1,505,325) translate(29.599999999999994 58.6)"/><path d="M580 281v19.76" stroke="#000" stroke-width="2" fill="none"/><path d="M581 281h-2v-1h2zM580 315.76l-4.64-14.26h9.28z"/><path d="M580 319l-6-18.5h12zm-3.26-16.5l3.26 10.03 3.26-10.03z"/><path d="M940 280h160v120H940z" stroke="#000" stroke-width="2" fill="#fff"/><use xlink:href="#f" transform="matrix(1,0,0,1,945,285) translate(27.025 58.6)"/><use xlink:href="#g" transform="matrix(1,0,0,1,945,285) translate(69.025 58.6)"/><use xlink:href="#h" transform="matrix(1,0,0,1,945,285) translate(94.025 58.6)"/><path d="M1020 241v19.76" stroke="#000" stroke-width="2" fill="none"/><path d="M1021 241h-2v-1h2zM1020 275.76l-4.64-14.26h9.28z"/><path d="M1020 279l-6-18.5h12zm-3.26-16.5l3.26 10.03 3.26-10.03z"/><path d="M480 646.4l46.4-46.4h67.2l46.4 46.4v67.2L593.6 760h-67.2L480 713.6z" stroke="#000" stroke-width="2" fill="#fff"/><use xlink:href="#i" transform="matrix(1,0,0,1,485,605) translate(31.049999999999997 78.60000000000001)"/><path d="M661 380h40v130H560v70.76" stroke="#000" stroke-width="2" fill="none"/><path d="M661 381h-1v-2h1zM560 595.76l-4.64-14.26h9.28z"/><path d="M560 599l-6-18.5h12zm-3.26-16.5l3.26 10.03 3.26-10.03z"/><path d="M880 800h160v120H880z" stroke="#000" stroke-width="2" fill="#fff"/><use xlink:href="#j" transform="matrix(1,0,0,1,885,805) translate(46.025 58.6)"/><use xlink:href="#k" transform="matrix(1,0,0,1,885,805) translate(93.975 58.6)"/><path d="M940 440h160v120H940z" stroke="#000" stroke-width="2" fill="#fff"/><use xlink:href="#l" transform="matrix(1,0,0,1,945,445) translate(10.125 58.6)"/><use xlink:href="#m" transform="matrix(1,0,0,1,945,445) translate(53.025000000000006 58.6)"/><path d="M1020 401v19.76" stroke="#000" stroke-width="2" fill="none"/><path d="M1021 401h-2v-1h2zM1020 435.76l-4.64-14.26h9.28z"/><path d="M1020 439l-6-18.5h12zm-3.26-16.5l3.26 10.03 3.26-10.03z"/><path d="M939 500h-49V220H679.24" stroke="#000" stroke-width="2" fill="none"/><path d="M940 501h-1v-2h1zM678.5 224.64L664.24 220l14.26-4.64z"/><path d="M679.5 226l-18.5-6 18.5-6zm-12.03-6l10.03 3.26v-6.52z"/><path d="M680 520h160v120H680z" stroke="#000" stroke-width="2" fill="#fff"/><use xlink:href="#n" transform="matrix(1,0,0,1,685,525) translate(45 58.6)"/><use xlink:href="#o" transform="matrix(1,0,0,1,685,525) translate(80 58.6)"/><path d="M698.67 380H760v120.76" stroke="#000" stroke-width="2" fill="none"/><path d="M760 515.76l-4.64-14.26h9.28z"/><path d="M760 519l-6-18.5h12zm-3.26-16.5l3.26 10.03 3.26-10.03z"/><path d="M900 580h160v120H900z" stroke="#000" stroke-width="2" fill="#fff"/><use xlink:href="#p" transform="matrix(1,0,0,1,905,585) translate(42.525 58.6)"/><path d="M760 380.4h100V640h20.76" stroke="#000" stroke-width="2" fill="none"/><path d="M895.76 640l-14.26 4.64v-9.28z"/><path d="M899 640l-18.5 6v-12zm-16.5 3.26l10.03-3.26-10.03-3.26z"/><path d="M680 800h160v120H680z" stroke="#000" stroke-width="2" fill="#fff"/><use xlink:href="#j" transform="matrix(1,0,0,1,685,805) translate(46.025 58.6)"/><use xlink:href="#q" transform="matrix(1,0,0,1,685,805) translate(93.975 58.6)"/><path d="M480 800h160v120H480z" stroke="#000" stroke-width="2" fill="#fff"/><use xlink:href="#j" transform="matrix(1,0,0,1,485,805) translate(46.025 58.6)"/><use xlink:href="#r" transform="matrix(1,0,0,1,485,805) translate(93.975 58.6)"/><path d="M280 800h160v120H280z" stroke="#000" stroke-width="2" fill="#fff"/><use xlink:href="#j" transform="matrix(1,0,0,1,285,805) translate(46.025 58.6)"/><use xlink:href="#s" transform="matrix(1,0,0,1,285,805) translate(93.975 58.6)"/><path d="M641 711.33h319v69.43" stroke="#000" stroke-width="2" fill="none"/><path d="M641 712.33h-1v-2h1zM960 795.76l-4.64-14.26h9.28z"/><path d="M960 799l-6-18.5h12zm-3.26-16.5l3.26 10.03 3.26-10.03z"/><path d="M617.5 737.5H760v43.26" stroke="#000" stroke-width="2" fill="none"/><path d="M617.5 738.5h-2.4l2-2h.4zM760 795.76l-4.64-14.26h9.28z"/><path d="M760 799l-6-18.5h12zm-3.26-16.5l3.26 10.03 3.26-10.03z"/><path d="M560 761v19.76" stroke="#000" stroke-width="2" fill="none"/><path d="M561 761h-2v-1h2zM560 795.76l-4.64-14.26h9.28z"/><path d="M560 799l-6-18.5h12zm-3.26-16.5l3.26 10.03 3.26-10.03z"/><path d="M479 708.67H360v72.1" stroke="#000" stroke-width="2" fill="none"/><path d="M480 709.67h-1v-2h1zM360 795.76l-4.64-14.26h9.28z"/><path d="M360 799l-6-18.5h12zm-3.26-16.5l3.26 10.03 3.26-10.03z"/><defs><path d="M205 0l-28-72H64L36 0H1l101-248h38L239 0h-34zm-38-99l-47-123c-12 45-31 82-46 123h93" id="t"/><path d="M160-131c35 5 61 23 61 61C221 17 115-2 30 0v-248c76 3 177-17 177 60 0 33-19 50-47 57zm-97-11c50-1 110 9 110-42 0-47-63-36-110-37v79zm0 115c55-2 124 14 124-45 0-56-70-42-124-44v89" id="u"/><path d="M212-179c-10-28-35-45-73-45-59 0-87 40-87 99 0 60 29 101 89 101 43 0 62-24 78-52l27 14C228-24 195 4 139 4 59 4 22-46 18-125c-6-104 99-153 187-111 19 9 31 26 39 46" id="v"/><g id="a"><use transform="matrix(0.05,0,0,0.05,0,0)" xlink:href="#t"/><use transform="matrix(0.05,0,0,0.05,12,0)" xlink:href="#u"/><use transform="matrix(0.05,0,0,0.05,24,0)" xlink:href="#v"/></g><path d="M185-189c-5-48-123-54-124 2 14 75 158 14 163 119 3 78-121 87-175 55-17-10-28-26-33-46l33-7c5 56 141 63 141-1 0-78-155-14-162-118-5-82 145-84 179-34 5 7 8 16 11 25" id="w"/><path d="M140-251c81 0 123 46 123 126C263-53 228-8 163 1c7 30 30 48 69 40v23c-55 16-95-15-103-61C56-3 17-48 17-125c0-80 42-126 123-126zm0 227c63 0 89-41 89-101s-29-99-89-99c-61 0-89 39-89 99S79-25 140-24" id="x"/><path d="M30 0v-248h33v221h125V0H30" id="y"/><g id="b"><use transform="matrix(0.05,0,0,0.05,0,0)" xlink:href="#w"/><use transform="matrix(0.05,0,0,0.05,12,0)" xlink:href="#x"/><use transform="matrix(0.05,0,0,0.05,26,0)" xlink:href="#y"/></g><path d="M24 0v-261h32V0H24" id="z"/><path d="M100-194c62-1 85 37 85 99 1 63-27 99-86 99S16-35 15-95c0-66 28-99 85-99zM99-20c44 1 53-31 53-75 0-43-8-75-51-75s-53 32-53 75 10 74 51 75" id="A"/><path d="M177-190C167-65 218 103 67 71c-23-6-38-20-44-43l32-5c15 47 100 32 89-28v-30C133-14 115 1 83 1 29 1 15-40 15-95c0-56 16-97 71-98 29-1 48 16 59 35 1-10 0-23 2-32h30zM94-22c36 0 50-32 50-73 0-42-14-75-50-75-39 0-46 34-46 75s6 73 46 73" id="B"/><path d="M24-231v-30h32v30H24zM24 0v-190h32V0H24" id="C"/><path d="M117-194c89-4 53 116 60 194h-32v-121c0-31-8-49-39-48C34-167 62-67 57 0H25l-1-190h30c1 10-1 24 2 32 11-22 29-35 61-36" id="D"/><g id="c"><use transform="matrix(0.05,0,0,0.05,0,0)" xlink:href="#z"/><use transform="matrix(0.05,0,0,0.05,3.95,0)" xlink:href="#A"/><use transform="matrix(0.05,0,0,0.05,13.949999999999998,0)" xlink:href="#B"/><use transform="matrix(0.05,0,0,0.05,23.95,0)" xlink:href="#C"/><use transform="matrix(0.05,0,0,0.05,27.899999999999995,0)" xlink:href="#D"/></g><path d="M84 4C-5 8 30-112 23-190h32v120c0 31 7 50 39 49 72-2 45-101 50-169h31l1 190h-30c-1-10 1-25-2-33-11 22-28 36-60 37" id="E"/><path d="M115-194c55 1 70 41 70 98S169 2 115 4C84 4 66-9 55-30l1 105H24l-1-265h31l2 30c10-21 28-34 59-34zm-8 174c40 0 45-34 45-75s-6-73-45-74c-42 0-51 32-51 76 0 43 10 73 51 73" id="F"/><g id="d"><use transform="matrix(0.05,0,0,0.05,0,0)" xlink:href="#w"/><use transform="matrix(0.05,0,0,0.05,12,0)" xlink:href="#C"/><use transform="matrix(0.05,0,0,0.05,15.949999999999998,0)" xlink:href="#D"/><use transform="matrix(0.05,0,0,0.05,25.950000000000003,0)" xlink:href="#B"/><use transform="matrix(0.05,0,0,0.05,35.95,0)" xlink:href="#E"/><use transform="matrix(0.05,0,0,0.05,45.95,0)" xlink:href="#F"/></g><path d="M114-163C36-179 61-72 57 0H25l-1-190h30c1 12-1 29 2 39 6-27 23-49 58-41v29" id="G"/><path d="M100-194c63 0 86 42 84 106H49c0 40 14 67 53 68 26 1 43-12 49-29l28 8c-11 28-37 45-77 45C44 4 14-33 15-96c1-61 26-98 85-98zm52 81c6-60-76-77-97-28-3 7-6 17-6 28h103" id="H"/><path d="M85-194c31 0 48 13 60 33l-1-100h32l1 261h-30c-2-10 0-23-3-31C134-8 116 4 85 4 32 4 16-35 15-94c0-66 23-100 70-100zm9 24c-40 0-46 34-46 75 0 40 6 74 45 74 42 0 51-32 51-76 0-42-9-74-50-73" id="I"/><path d="M59-47c-2 24 18 29 38 22v24C64 9 27 4 27-40v-127H5v-23h24l9-43h21v43h35v23H59v120" id="J"/><path d="M141-36C126-15 110 5 73 4 37 3 15-17 15-53c-1-64 63-63 125-63 3-35-9-54-41-54-24 1-41 7-42 31l-33-3c5-37 33-52 76-52 45 0 72 20 72 64v82c-1 20 7 32 28 27v20c-31 9-61-2-59-35zM48-53c0 20 12 33 32 33 41-3 63-29 60-74-43 2-92-5-92 41" id="K"/><path d="M135-143c-3-34-86-38-87 0 15 53 115 12 119 90S17 21 10-45l28-5c4 36 97 45 98 0-10-56-113-15-118-90-4-57 82-63 122-42 12 7 21 19 24 35" id="L"/><g id="e"><use transform="matrix(0.05,0,0,0.05,0,0)" xlink:href="#v"/><use transform="matrix(0.05,0,0,0.05,12.950000000000001,0)" xlink:href="#G"/><use transform="matrix(0.05,0,0,0.05,18.900000000000002,0)" xlink:href="#H"/><use transform="matrix(0.05,0,0,0.05,28.900000000000002,0)" xlink:href="#I"/><use transform="matrix(0.05,0,0,0.05,38.900000000000006,0)" xlink:href="#H"/><use transform="matrix(0.05,0,0,0.05,48.900000000000006,0)" xlink:href="#D"/><use transform="matrix(0.05,0,0,0.05,58.900000000000006,0)" xlink:href="#J"/><use transform="matrix(0.05,0,0,0.05,63.900000000000006,0)" xlink:href="#C"/><use transform="matrix(0.05,0,0,0.05,67.85000000000001,0)" xlink:href="#K"/><use transform="matrix(0.05,0,0,0.05,77.85000000000001,0)" xlink:href="#z"/><use transform="matrix(0.05,0,0,0.05,81.80000000000001,0)" xlink:href="#L"/></g><path d="M33 0v-248h34V0H33" id="M"/><g id="f"><use transform="matrix(0.05,0,0,0.05,0,0)" xlink:href="#w"/><use transform="matrix(0.05,0,0,0.05,12,0)" xlink:href="#M"/><use transform="matrix(0.05,0,0,0.05,17,0)" xlink:href="#D"/><use transform="matrix(0.05,0,0,0.05,27,0)" xlink:href="#B"/></g><g id="g"><use transform="matrix(0.05,0,0,0.05,0,0)" xlink:href="#E"/><use transform="matrix(0.05,0,0,0.05,10,0)" xlink:href="#F"/></g><path d="M101-234c-31-9-42 10-38 44h38v23H63V0H32v-167H5v-23h27c-7-52 17-82 69-68v24" id="N"/><g id="h"><use transform="matrix(0.05,0,0,0.05,0,0)" xlink:href="#C"/><use transform="matrix(0.05,0,0,0.05,3.95,0)" xlink:href="#D"/><use transform="matrix(0.05,0,0,0.05,13.949999999999998,0)" xlink:href="#N"/><use transform="matrix(0.05,0,0,0.05,18.95,0)" xlink:href="#A"/></g><path d="M30-248c118-7 216 8 213 122C240-48 200 0 122 0H30v-248zM63-27c89 8 146-16 146-99s-60-101-146-95v194" id="O"/><path d="M106-169C34-169 62-67 57 0H25v-261h32l-1 103c12-21 28-36 61-36 89 0 53 116 60 194h-32v-121c2-32-8-49-39-48" id="P"/><path d="M115-194c53 0 69 39 70 98 0 66-23 100-70 100C84 3 66-7 56-30L54 0H23l1-261h32v101c10-23 28-34 59-34zm-8 174c40 0 45-34 45-75 0-40-5-75-45-74-42 0-51 32-51 76 0 43 10 73 51 73" id="Q"/><g id="i"><use transform="matrix(0.05,0,0,0.05,0,0)" xlink:href="#O"/><use transform="matrix(0.05,0,0,0.05,12.950000000000001,0)" xlink:href="#K"/><use transform="matrix(0.05,0,0,0.05,22.950000000000003,0)" xlink:href="#L"/><use transform="matrix(0.05,0,0,0.05,31.950000000000003,0)" xlink:href="#P"/><use transform="matrix(0.05,0,0,0.05,41.95,0)" xlink:href="#Q"/><use transform="matrix(0.05,0,0,0.05,51.95,0)" xlink:href="#A"/><use transform="matrix(0.05,0,0,0.05,61.95,0)" xlink:href="#K"/><use transform="matrix(0.05,0,0,0.05,71.95,0)" xlink:href="#G"/><use transform="matrix(0.05,0,0,0.05,77.9,0)" xlink:href="#I"/></g><path d="M108 0H70L1-190h34L89-25l56-165h34" id="R"/><g id="j"><use transform="matrix(0.05,0,0,0.05,0,0)" xlink:href="#y"/><use transform="matrix(0.05,0,0,0.05,10,0)" xlink:href="#H"/><use transform="matrix(0.05,0,0,0.05,20,0)" xlink:href="#R"/><use transform="matrix(0.05,0,0,0.05,29,0)" xlink:href="#H"/><use transform="matrix(0.05,0,0,0.05,39,0)" xlink:href="#z"/></g><path d="M27 0v-27h64v-190l-56 39v-29l58-41h29v221h61V0H27" id="S"/><use transform="matrix(0.05,0,0,0.05,0,0)" xlink:href="#S" id="k"/><path d="M232-93c-1 65-40 97-104 97C67 4 28-28 28-90v-158h33c8 89-33 224 67 224 102 0 64-133 71-224h33v155" id="T"/><g id="l"><use transform="matrix(0.05,0,0,0.05,0,0)" xlink:href="#T"/><use transform="matrix(0.05,0,0,0.05,12.950000000000001,0)" xlink:href="#L"/><use transform="matrix(0.05,0,0,0.05,21.950000000000003,0)" xlink:href="#H"/><use transform="matrix(0.05,0,0,0.05,31.950000000000003,0)" xlink:href="#G"/></g><path d="M233-177c-1 41-23 64-60 70L243 0h-38l-65-103H63V0H30v-248c88 3 205-21 203 71zM63-129c60-2 137 13 137-47 0-61-80-42-137-45v92" id="U"/><g id="m"><use transform="matrix(0.05,0,0,0.05,0,0)" xlink:href="#U"/><use transform="matrix(0.05,0,0,0.05,12.950000000000001,0)" xlink:href="#H"/><use transform="matrix(0.05,0,0,0.05,22.950000000000003,0)" xlink:href="#B"/><use transform="matrix(0.05,0,0,0.05,32.95,0)" xlink:href="#C"/><use transform="matrix(0.05,0,0,0.05,36.900000000000006,0)" xlink:href="#L"/><use transform="matrix(0.05,0,0,0.05,45.900000000000006,0)" xlink:href="#J"/><use transform="matrix(0.05,0,0,0.05,50.900000000000006,0)" xlink:href="#H"/><use transform="matrix(0.05,0,0,0.05,60.900000000000006,0)" xlink:href="#G"/><use transform="matrix(0.05,0,0,0.05,66.85000000000001,0)" xlink:href="#H"/><use transform="matrix(0.05,0,0,0.05,76.85000000000001,0)" xlink:href="#I"/></g><g id="n"><use transform="matrix(0.05,0,0,0.05,0,0)" xlink:href="#y"/><use transform="matrix(0.05,0,0,0.05,10,0)" xlink:href="#A"/><use transform="matrix(0.05,0,0,0.05,20,0)" xlink:href="#B"/></g><g id="o"><use transform="matrix(0.05,0,0,0.05,0,0)" xlink:href="#A"/><use transform="matrix(0.05,0,0,0.05,10,0)" xlink:href="#E"/><use transform="matrix(0.05,0,0,0.05,20,0)" xlink:href="#J"/></g><path d="M30-248c87 1 191-15 191 75 0 78-77 80-158 76V0H30v-248zm33 125c57 0 124 11 124-50 0-59-68-47-124-48v98" id="V"/><path d="M96-169c-40 0-48 33-48 73s9 75 48 75c24 0 41-14 43-38l32 2c-6 37-31 61-74 61-59 0-76-41-82-99-10-93 101-131 147-64 4 7 5 14 7 22l-32 3c-4-21-16-35-41-35" id="W"/><g id="p"><use transform="matrix(0.05,0,0,0.05,0,0)" xlink:href="#V"/><use transform="matrix(0.05,0,0,0.05,12,0)" xlink:href="#G"/><use transform="matrix(0.05,0,0,0.05,17.95,0)" xlink:href="#A"/><use transform="matrix(0.05,0,0,0.05,27.950000000000003,0)" xlink:href="#W"/><use transform="matrix(0.05,0,0,0.05,36.95,0)" xlink:href="#H"/><use transform="matrix(0.05,0,0,0.05,46.95,0)" xlink:href="#L"/><use transform="matrix(0.05,0,0,0.05,55.95,0)" xlink:href="#L"/></g><path d="M101-251c82-7 93 87 43 132L82-64C71-53 59-42 53-27h129V0H18c2-99 128-94 128-182 0-28-16-43-45-43s-46 15-49 41l-32-3c6-41 34-60 81-64" id="X"/><use transform="matrix(0.05,0,0,0.05,0,0)" xlink:href="#X" id="q"/><path d="M126-127c33 6 58 20 58 59 0 88-139 92-164 29-3-8-5-16-6-25l32-3c6 27 21 44 54 44 32 0 52-15 52-46 0-38-36-46-79-43v-28c39 1 72-4 72-42 0-27-17-43-46-43-28 0-47 15-49 41l-32-3c6-42 35-63 81-64 48-1 79 21 79 65 0 36-21 52-52 59" id="Y"/><use transform="matrix(0.05,0,0,0.05,0,0)" xlink:href="#Y" id="r"/><path d="M155-56V0h-30v-56H8v-25l114-167h33v167h35v25h-35zm-30-156c-27 46-58 90-88 131h88v-131" id="Z"/><use transform="matrix(0.05,0,0,0.05,0,0)" xlink:href="#Z" id="s"/></defs></g></svg>